<?xml version="1.0" encoding="utf-8"?>
<!-- Generator: Adobe Illustrator 21.0.1, SVG Export Plug-In . SVG Version: 6.00 Build 0)  -->
<svg version="1.1" id="Layer_1" xmlns="http://www.w3.org/2000/svg" xmlns:xlink="http://www.w3.org/1999/xlink" x="0px" y="0px"
	 viewBox="0 0 1003.6 293.8" style="enable-background:new 0 0 1003.6 293.8;" xml:space="preserve">
<style type="text/css">
	.st0{fill:#DFA528;}
	.st1{fill:#FFFFFF;}
	.st2{fill:#DF7828;}
	.st3{fill:#DFAB4C;}
</style>
<path class="st0" d="M102.9-292.7c0,0-48,0.6-39.9-69C63-361.7,124.7-334.7,102.9-292.7z"/>
<g>
	<path class="st1" d="M32.3,27.4c3.8,0,7.1,1.4,9.8,4.1c2.8,2.8,4.2,6.1,4.2,10v62.2h64.1V41.4c0-3.9,1.4-7.2,4.2-10
		c2.8-2.7,6.1-4.1,9.8-4.1h0.3c3.8,0,7.1,1.4,9.8,4.1c2.8,2.8,4.2,6.1,4.2,10v152.7c0,3.9-1.4,7.2-4.2,9.8c-2.8,2.8-6.1,4.2-9.8,4.2
		h-0.3c-3.8,0-7.1-1.4-9.8-4.2c-2.8-2.6-4.2-5.9-4.2-9.8v-62.2H46.3v62.2c0,3.9-1.4,7.2-4.2,9.8c-2.8,2.8-6.1,4.2-9.8,4.2H32
		c-3.8,0-7.1-1.4-9.8-4.2c-2.8-2.6-4.2-5.9-4.2-9.8V41.4c0-3.9,1.4-7.2,4.2-10c2.8-2.7,6.1-4.1,9.8-4.1H32.3z"/>
	<path class="st1" d="M385.6,227.3c9.6,0,18.4-3.8,26.1-11.3c8.1-7.7,12.1-16.7,12.1-27c-8.8,12.7-21.6,19.1-38.3,19.1
		c-18.4,0-34.1-6.5-47.1-19.6c-13-13-19.6-28.7-19.6-47.1c0-18.4,6.5-34.1,19.6-47.1c13-13,28.7-19.6,47.1-19.6
		c18.3,0,33.9,6.5,47,19.4c13,12.9,19.6,28.5,19.7,47V189c0,18.1-7,33.8-20.9,47.2c-13.5,13-28.7,19.4-45.7,19.4
		c-26,0-45.5-10.1-58.4-30.3c-1.5-2.4-2.3-4.9-2.3-7.4c0-1.5,0.3-3.1,0.8-4.6c1.4-4.3,4.2-7.2,8.6-8.8l0.3-0.1c1.9-0.7,3.8-1,5.6-1
		c4.3,0,7.9,2.2,10.9,6.5C358.6,221.5,370.2,227.3,385.6,227.3z M423.9,140.8c-0.2-10.4-4-19.3-11.5-26.6c-7.4-7.3-16.4-11-26.8-11
		c-10.6,0-19.7,3.7-27.2,11.2c-7.4,7.5-11.1,16.5-11.1,27.1c0,10.6,3.7,19.7,11.1,27.2c7.5,7.4,16.5,11.1,27.2,11.1
		c10.6,0,19.7-3.7,27.1-11.1c7.5-7.5,11.2-16.5,11.2-27.2V140.8z"/>
	<path class="st1" d="M533,27.4c3.9,0,7.2,1.4,10,4.1c2.7,2.8,4.1,6.1,4.1,10v0.2c0,3.9-1.4,7.2-4.1,10c-2.8,2.7-6.1,4.1-10,4.1
		h-6.6c-6.3,0-11.7,2.2-16.1,6.6c-4.3,4.4-6.5,8.6-6.6,12.7H533c3.9,0,7.2,1.4,10,4.2c2.7,2.7,4.1,6,4.1,9.8v0.2
		c0,3.9-1.4,7.2-4.1,10c-2.8,2.8-6.1,4.2-10,4.2h-29.3v90.8c0,3.9-1.4,7.2-4.2,9.8c-2.8,2.8-6.1,4.2-9.8,4.2h-0.3
		c-3.8,0-7.1-1.4-9.8-4.2c-2.8-2.6-4.2-5.9-4.2-9.8V78.3c0.2-14.1,5.1-26.1,14.9-36c10-10,22-14.9,36.1-14.9H533z"/>
	<path class="st1" d="M626.4,74.8c18.4,0,34.1,6.5,47.1,19.6c13,13,19.6,28.7,19.6,47.1c0,18.4-6.5,34.1-19.6,47.1
		c-13,13-28.7,19.6-47.1,19.6c-18.4,0-34.1-6.5-47.1-19.6c-13-13-19.6-28.7-19.6-47.1c0-18.4,6.5-34.1,19.6-47.1
		C592.3,81.3,608,74.8,626.4,74.8z M626.4,103.4c-10.6,0-19.7,3.7-27.2,11.2c-7.4,7.5-11.1,16.5-11.1,27.2
		c0,10.6,3.7,19.6,11.1,27.1c7.5,7.5,16.5,11.2,27.2,11.2c10.6,0,19.6-3.7,27.1-11.2c7.5-7.5,11.2-16.5,11.2-27.1
		c0-10.6-3.7-19.7-11.2-27.2C646,107.1,636.9,103.4,626.4,103.4z"/>
	<path class="st1" d="M775.9,74.8c18.4,0,34.1,6.5,47.1,19.6c13,13,19.6,28.7,19.6,47.1c0,18.4-6.5,34.1-19.6,47.1
		c-13,13-28.7,19.6-47.1,19.6c-18.4,0-34.1-6.5-47.1-19.6c-13-13-19.6-28.7-19.6-47.1c0-18.4,6.5-34.1,19.6-47.1
		C741.8,81.3,757.5,74.8,775.9,74.8z M775.9,103.4c-10.6,0-19.7,3.7-27.2,11.2c-7.4,7.5-11.1,16.5-11.1,27.2
		c0,10.6,3.7,19.6,11.1,27.1c7.5,7.5,16.5,11.2,27.2,11.2c10.6,0,19.6-3.7,27.1-11.2c7.5-7.5,11.2-16.5,11.2-27.1
		c0-10.6-3.7-19.7-11.2-27.2C795.5,107.1,786.4,103.4,775.9,103.4z"/>
	<path class="st1" d="M978,27.4c3.8,0,7.1,1.4,9.8,4.1c2.8,2.8,4.2,6.1,4.2,10v100.4c-0.1,18.4-6.6,34-19.7,46.9
		c-13,13-28.7,19.4-47,19.4c-18.4,0-34.1-6.5-47.1-19.6c-13-13-19.6-28.7-19.6-47.1c0-18.4,6.5-34.1,19.6-47.1
		c13-13,28.7-19.6,47.1-19.6c16.7,0,29.5,3.9,38.3,11.6v-45c0-3.9,1.4-7.2,4.2-10c2.8-2.7,6.1-4.1,9.8-4.1H978z M898.2,114.6
		c-7.4,7.5-11.1,16.5-11.1,27.2c0,10.6,3.7,19.6,11.1,27.1c7.5,7.5,16.5,11.2,27.2,11.2c10.6,0,19.6-3.7,27.1-11.2
		c7.5-7.5,11.2-16.5,11.2-27.1c0-10.6-3.7-19.7-11.2-27.2c-7.5-7.5-16.5-11.2-27.1-11.2C914.7,103.4,905.6,107.1,898.2,114.6z"/>
	<path class="st2" d="M219,207.8c0,0-69,0.8-57.4-99.3C161.5,108.4,250.3,147.3,219,207.8z"/>
	<path class="st3" d="M217.7,207.7c0,0-31.1-75.6,84.1-106.5C301.8,101.2,297.8,215.7,217.7,207.7z"/>
</g>
<path class="st2" d="M-3.7-287c0,0-48,0.6-39.9-69C-43.6-356.1,18.1-329.1-3.7-287z"/>
</svg>
