<svg xmlns="http://www.w3.org/2000/svg" width="30" height="30" fill="none" viewBox="0 0 30 30">
    <path fill="#fff" d="M1.11 3.606H4.29l4.532 16.388c.13.481.574.814 1.073.814h13.928c.444 0 .833-.259 1.018-.666L29.91 8.49c.148-.351.11-.74-.093-1.054a1.102 1.102 0 0 0-.925-.5h-15.39c-.61 0-1.109.5-1.109 1.11 0 .61.5 1.11 1.11 1.11H27.19l-4.107 9.433H10.728L6.197 2.2a1.11 1.11 0 0 0-1.073-.814H1.11c-.61 0-1.11.5-1.11 1.11 0 .61.5 1.11 1.11 1.11zM8.842 28.614a2.518 2.518 0 0 0 2.515-2.516 2.518 2.518 0 0 0-2.515-2.515 2.518 2.518 0 0 0-2.516 2.515 2.518 2.518 0 0 0 2.516 2.516zM24.564 28.614h.185a2.51 2.51 0 0 0 1.72-.87c.444-.499.648-1.146.61-1.83a2.522 2.522 0 0 0-2.681-2.331c-1.388.092-2.424 1.313-2.331 2.682.093 1.313 1.184 2.349 2.497 2.349z"/>
</svg>
